<?xml version="1.0" encoding="utf-8"?>
<!-- Generator: Adobe Illustrator 16.0.0, SVG Export Plug-In . SVG Version: 6.00 Build 0)  -->
<!DOCTYPE svg PUBLIC "-//W3C//DTD SVG 1.1//EN" "http://www.w3.org/Graphics/SVG/1.1/DTD/svg11.dtd">
<svg version="1.1" xmlns="http://www.w3.org/2000/svg" xmlns:xlink="http://www.w3.org/1999/xlink" x="0px" y="0px" width="256px"
	 height="256px" viewBox="0 0 256 256" enable-background="new 0 0 256 256" xml:space="preserve">
<g id="Layer_2">
	<rect fill="#004A80" width="256" height="256"/>
</g>
<g id="Layer_1">
	<polygon opacity="0.8" fill-rule="evenodd" clip-rule="evenodd" fill="#02395B" points="117.315,256.906 193.541,190.194 
		64.066,42.254 0.022,98.304 0.022,256.2 0.64,256.906 	"/>
	<g>
		<path fill-rule="evenodd" clip-rule="evenodd" fill="#FFFFFF" d="M66.542,195.239c0.444-3.112,0.677-7.692,1.799-12.049
			c4.469-17.335,1.428-33.485-7.383-48.701c-10.888-18.81-11.721-37.462,0.976-55.641c3.059-4.377,2.062-6.457-0.953-10.272
			c-7.291-9.228-5.167-21.318,3.816-26.666c9.101-5.418,20.34-1.8,25.21,9.427c2.51,5.784,5.686,6.67,11.133,6.668
			c18.782-0.008,33.546,8.131,42.971,24.299c10.291,17.653,24.912,28.686,44.313,34.982c25.029,8.121,29.208,22.559,13.535,43.687
			c-3.356,4.524-4.823,8.421-4.348,14.398c1.105,13.89-11.256,23.549-24.503,18.831c-6.852-2.439-11.459-1.055-17.025,2.143
			c-18.96,10.885-38.345,20.999-60.437,23.814C76.186,222.644,65.911,214.092,66.542,195.239z M169.417,169.944
			c5.054-3.897,13.183-1.262,16.91-7.965c9.963-2.011,17.716-12.795,15.443-22.177c-2.677-11.079-11.264-10.385-19.702-8.899
			c-5.233,0.925-10.55,2.103-15.433,4.126c-5.438,2.256-15.13,2.618-14.798,8.43c0.354,6.229,8.854,9.998,14.983,13.361
			c2.95,1.616,6.263,1.327,9.614,1.176c3.84-0.176,8.426-1.022,10.147,4.254c-7.665-1.368-15.305-2.657-19.885,6.059
			c0.047,1.006,0.09,2.006,0.137,3.012C167.694,170.86,168.557,170.404,169.417,169.944z M93.628,214.574
			c24.166-2.1,44.378-14.05,64.515-26.16c3.107-1.869,1.847-4.724,1.919-7.605c0.37-15.256-11.332-21.898-20.831-30.142
			c-2.246-1.946-4.537-0.952-6.813,0.319c-18.728,10.479-37.141,21.434-51.539,37.748c-4.291,4.861-9.401,10.315-5.456,17.548
			C79.211,213.221,86.2,214.627,93.628,214.574z M123.958,70.104c-25.521-15.833-58.869-1.458-64.796,27.788
			C75.974,75.837,98.829,73.048,123.958,70.104z M79.941,56.792c-0.582-3.722-2.803-6.094-6.46-5.924
			c-4.243,0.197-6.673,2.919-6.102,7.297c0.496,3.773,3.145,5.589,6.871,5.2C78.025,62.973,79.83,60.526,79.941,56.792z"/>
		<path fill-rule="evenodd" clip-rule="evenodd" fill="#02395B" d="M93.628,214.574c-7.428,0.053-14.417-1.354-18.205-8.292
			c-3.946-7.232,1.165-12.687,5.456-17.548c14.398-16.314,32.811-27.27,51.539-37.748c2.275-1.271,4.566-2.266,6.813-0.319
			c9.499,8.243,21.201,14.886,20.831,30.142c-0.072,2.882,1.188,5.736-1.919,7.605C138.006,200.524,117.794,212.475,93.628,214.574z
			"/>
		<path fill-rule="evenodd" clip-rule="evenodd" fill="#02395B" d="M186.599,162.26c-1.737-5.286-6.323-4.439-10.163-4.264
			c-3.352,0.151-6.664,0.44-9.614-1.176c-6.13-3.363-14.629-7.133-14.983-13.361c-0.332-5.812,9.36-6.174,14.798-8.43
			c4.883-2.023,10.199-3.201,15.433-4.126c8.438-1.485,17.025-2.18,19.702,8.899c2.272,9.382-5.48,20.166-15.453,22.169
			C186.313,161.964,186.599,162.26,186.599,162.26z"/>
		<path fill-rule="evenodd" clip-rule="evenodd" fill="#02395B" d="M123.958,70.104c-25.129,2.944-47.983,5.733-64.796,27.788
			C65.089,68.646,98.436,54.272,123.958,70.104z"/>
		<path fill-rule="evenodd" clip-rule="evenodd" fill="#02395B" d="M79.941,56.792c-0.112,3.734-1.917,6.18-5.691,6.573
			c-3.726,0.389-6.375-1.427-6.871-5.2c-0.572-4.378,1.858-7.1,6.102-7.297C77.139,50.699,79.359,53.071,79.941,56.792z"/>
		<path fill-rule="evenodd" clip-rule="evenodd" fill="#02395B" d="M166.696,168.318c4.582-8.726,12.222-7.437,19.891-6.066
			c0.012,0.008-0.273-0.288-0.27-0.28c-3.718,6.711-11.847,4.075-16.9,7.973C168.512,169.404,167.603,168.859,166.696,168.318z"/>
	</g>
</g>
</svg>
